<svg width="22" height="14" viewBox="0 0 22 14" fill="none" xmlns="http://www.w3.org/2000/svg">
<path fill-rule="evenodd" clip-rule="evenodd" d="M9.98989 3C9.98989 4.66 8.65989 6 6.99989 6C5.33989 6 3.99989 4.66 3.99989 3C3.99989 1.34 5.33989 0 6.99989 0C8.65989 0 9.98989 1.34 9.98989 3ZM17.99 3C17.99 4.66 16.66 6 15 6C13.34 6 12 4.66 12 3C12 1.34 13.34 0 15 0C16.66 0 17.99 1.34 17.99 3ZM6.99997 7.99996C4.66997 7.99996 -3.05176e-05 9.16996 -3.05176e-05 11.5V13C-3.05176e-05 13.55 0.449969 14 0.999969 14H13C13.55 14 14 13.55 14 13V11.5C14 9.16996 9.32997 7.99996 6.99997 7.99996ZM14.0301 8.04996C14.3801 8.01996 14.7101 7.99996 15.0001 7.99996C17.33 7.99996 22 9.16996 22 11.5V13C22 13.55 21.55 14 21 14H15.8201C15.93 13.69 16 13.35 16 13V11.5C16 10.03 15.2101 8.91996 14.0701 8.08996C14.067 8.08693 14.064 8.08299 14.0607 8.07868C14.0531 8.06877 14.044 8.05693 14.0301 8.04996Z" fill="#E4163A"/>
</svg>
